<svg width="26" height="26" viewBox="0 0 26 26" stroke="#fff" fill="none" xmlns="http://www.w3.org/2000/svg">
<path d="M2.33333 1H23.6667C24.0203 1 24.3594 1.1427 24.6095 1.39672C24.8595 1.65073 25 1.99525 25 2.35448V4.50269C24.9999 4.86189 24.8594 5.20635 24.6093 5.4603L16.056 14.1479C15.8064 14.4021 15.6664 14.7466 15.6667 15.1056V23.6456C15.6667 23.8514 15.6205 24.0546 15.5316 24.2396C15.4427 24.4247 15.3134 24.5867 15.1536 24.7133C14.9938 24.84 14.8077 24.928 14.6095 24.9706C14.4112 25.0133 14.2059 25.0094 14.0093 24.9594L11.3427 24.2822C11.0543 24.2088 10.7984 24.0396 10.6155 23.8016C10.4327 23.5636 10.3333 23.2703 10.3333 22.9683V15.1056C10.3333 14.7464 10.1927 14.4019 9.94267 14.1479L1.38933 5.4603C1.13976 5.20613 0.999722 4.86169 1 4.50269V2.35448C1 1.99525 1.14048 1.65073 1.39052 1.39672C1.64057 1.1427 1.97971 1 2.33333 1V1Z" stroke-width="2" stroke-linecap="round" stroke-linejoin="round"/>
</svg>
