<svg width="46" height="45" viewBox="0 0 46 45" fill="currentColor" xmlns="http://www.w3.org/2000/svg">
    <path
        d="M26.4353 4.98438L30.1019 12.3177C30.6019 13.3385 31.9353 14.3177 33.0603 14.5052L39.7061 15.6094C43.9561 16.3177 44.9561 19.401 41.8936 22.4427L36.7269 27.6094C35.8519 28.4844 35.3728 30.1719 35.6436 31.3802L37.1228 37.776C38.2894 42.8385 35.6019 44.7969 31.1228 42.151L24.8936 38.4635C23.7686 37.7969 21.9144 37.7969 20.7686 38.4635L14.5394 42.151C10.0811 44.7969 7.37278 42.8177 8.53944 37.776L10.0186 31.3802C10.2894 30.1719 9.81028 28.4844 8.93528 27.6094L3.76861 22.4427C0.726943 19.401 1.70611 16.3177 5.95611 15.6094L12.6019 14.5052C13.7061 14.3177 15.0394 13.3385 15.5394 12.3177L19.2061 4.98438C21.2061 1.00521 24.4561 1.00521 26.4353 4.98438Z"
        stroke="white" stroke-width="3" stroke-linecap="round" stroke-linejoin="round" />
</svg>
